<?xml version="1.0" standalone="no"?><!DOCTYPE svg PUBLIC "-//W3C//DTD SVG 1.1//EN" "http://www.w3.org/Graphics/SVG/1.1/DTD/svg11.dtd"><svg t="1501136747141" class="icon" style="" viewBox="0 0 1515 1024" version="1.1" xmlns="http://www.w3.org/2000/svg" p-id="9795" xmlns:xlink="http://www.w3.org/1999/xlink" width="47.34375" height="32"><defs><style type="text/css"></style></defs><path d="M829.194521 642.005918c-10.092712-13.529425-21.230466-26.104986-33.427288-37.712658-12.189808-11.614685-24.38663-22.191342-36.569425-31.708932-12.189808-9.524603-23.334575-18.670466-33.427288-27.437589-10.092712-8.753096-18.284712-17.905973-24.568986-27.423562-6.284274-9.524603-9.426411-19.238575-9.426411-29.141918 0-13.718795 4.383562-26.574904 13.143671-38.575342s19.427945-23.615123 31.996493-34.858082 25.137096-23.523945 37.712658-36.856986c12.561534-13.340055 23.22937-30.951452 31.996493-52.862247 8.753096-21.903781 13.136658-46.949699 13.136658-75.137753 0-33.525479-7.427507-65.718356-22.289534-96.571616-14.855014-30.860274-35.804932-54.861151-62.856767-72.00263l77.143671 0 77.136658-45.147178L639.193425 36.569425c-35.426192 0-71.048767 3.815452-106.846685 11.446356-52.946411 11.811068-97.518466 38.764712-133.709151 80.853918-36.190685 42.096219-54.286027 89.810411-54.286027 143.142575 0 56.383123 20.29063 103.241644 60.857863 140.568548 40.567233 37.326904 89.235288 55.99737 145.997151 55.99737 11.425315 0 24.758356-0.953863 39.999123-2.854575-0.764493 3.043945-2.090082 7.139945-3.997808 12.280986s-3.429699 9.244055-4.572932 12.288c-1.143233 3.043945-2.097096 6.754192-2.854575 11.137753-0.764493 4.383562-1.143233 8.865315-1.143233 13.431233 0 25.14411 12.182795 53.528548 36.569425 85.146301-28.952548 0.771507-57.519342 3.338521-85.714411 7.722082-28.188055 4.383562-57.708712 11.242959-88.568986 20.578192-30.85326 9.328219-58.473205 22.857644-82.852822 40.567233-24.379616 17.716603-42.664329 38.757699-54.854137 63.144329-14.097534 28.195068-21.146301 53.907288-21.146301 77.143671 0 25.522849 5.716164 48.661041 17.141479 69.428603 11.425315 20.753534 26.090959 37.712658 43.996932 50.849315 17.905973 13.150685 38.575342 24.190247 62.001096 33.153753 23.425753 8.942466 46.662137 15.331945 69.709151 19.140384s45.806466 5.709151 68.28537 5.709151c102.091397 0 182.096658-24.947726 239.99474-74.850192 53.332164-46.479781 79.998247-100.197699 79.998247-161.153753 0-21.721425-3.142137-41.998027-9.433425-60.857863C847.479233 671.708932 839.294247 655.528329 829.194521 642.005918zM608.908274 434.302247c-19.427945 0-37.902027-4.951671-55.42926-14.862027-17.527233-9.910356-32.382247-22.766466-44.572055-38.575342-12.182795-15.808877-22.85063-33.616658-31.996493-53.430356-9.138849-19.806685-15.900055-39.61337-20.283616-59.427068-4.383562-19.806685-6.571836-38.666521-6.571836-56.572493 0-36.569425 9.713973-67.997808 29.141918-94.285151 19.427945-26.287342 46.858521-39.431014 82.284712-39.431014 25.14411 0 47.903562 7.806247 68.28537 23.425753 20.381808 15.619507 36.380055 35.426192 48.001753 59.427068 11.614685 24.000877 20.571178 48.850411 26.855452 74.569644 6.284274 25.712219 9.426411 50.000658 9.426411 72.858301 0 38.098411-8.283178 68.685151-24.856548 91.732164C672.620712 422.77874 645.863452 434.302247 608.908274 434.302247zM766.905863 863.42137c-10.471452 17.905973-24.660164 31.905315-42.566137 41.991014-17.905973 10.099726-37.046356 17.527233-57.428164 22.296548-20.381808 4.769315-41.808658 7.146959-64.287562 7.146959-24.379616 0-48.576877-2.861589-72.57074-8.57074-23.993863-5.709151-46.949699-14.39211-68.853479-25.999781-21.903781-11.614685-39.620384-27.619945-53.142795-48.008767-13.522411-20.374795-20.283616-43.52-20.283616-69.428603 0-22.85063 5.141041-43.232438 15.430137-61.138411 10.289096-17.905973 23.432767-32.19989 39.431014-42.853699 15.998247-10.667836 34.661699-19.434959 55.99737-26.280329 21.335671-6.866411 41.906849-11.621699 61.713534-14.286904 19.806685-2.672219 39.999123-3.997808 60.570301-3.997808 12.575562 0 22.100164 0.385753 28.573808 1.136219 2.286466 1.536 8.093808 5.526795 17.429041 12.000438 9.335233 6.480658 15.619507 10.864219 18.859836 13.150685 3.233315 2.279452 9.138849 6.663014 17.709589 13.136658 8.57074 6.480658 14.665644 11.334137 18.284712 14.574466 3.612055 3.233315 8.851288 8.093808 15.710685 14.567452 6.852384 6.480658 11.902247 12.091616 15.142575 16.853918 3.233315 4.762301 7.238137 10.569644 12.000438 17.422027 4.762301 6.866411 8.093808 13.438247 10.001534 19.722521 1.900712 6.291288 3.710247 13.143671 5.421589 20.571178 1.711342 7.441534 2.567014 15.149589 2.567014 23.152219C782.623562 824.572493 777.384329 845.522411 766.905863 863.42137z" p-id="9796" fill="#ef3931"></path><path d="M1086.632329 182.854137 1086.632329 36.569425 1013.479452 36.569425 1013.479452 182.854137 867.19474 182.854137 867.19474 256 1013.479452 256 1013.479452 402.284712 1086.632329 402.284712 1086.632329 256 1232.903014 256 1232.903014 182.854137Z" p-id="9797" fill="#ef3931"></path></svg>