<?xml version="1.0" standalone="no"?><!DOCTYPE svg PUBLIC "-//W3C//DTD SVG 1.1//EN" "http://www.w3.org/Graphics/SVG/1.1/DTD/svg11.dtd"><svg t="1501126292237" class="icon" style="" viewBox="0 0 1024 1024" version="1.1" xmlns="http://www.w3.org/2000/svg" p-id="7227" xmlns:xlink="http://www.w3.org/1999/xlink" width="32" height="32"><defs><style type="text/css"></style></defs><path d="M947 270.7c-32 14.2-66.4 23.8-102.5 28.1 36.9-22.1 65.2-57 78.5-98.7-34.5 20.4-72.7 35.3-113.4 43.3-32.5-34.7-78.9-56.4-130.3-56.4-98.5 0-178.4 79.9-178.4 178.5 0 14 1.5 27.6 4.6 40.6-148.3-7.5-279.8-78.4-367.9-186.5-15.4 26.5-24.2 57.1-24.2 89.8 0 61.9 31.5 116.5 79.4 148.6-29.2-0.9-56.8-9-80.9-22.3v2.2c0 86.5 61.5 158.7 143.2 175-15 4.2-30.7 6.3-47.1 6.3-11.5 0-22.7-1.1-33.6-3.2 22.7 70.9 88.6 122.5 166.7 123.9-61.1 47.9-138.1 76.4-221.7 76.4-14.4 0-28.6-0.8-42.6-2.5 79 50.6 172.8 80.2 273.6 80.2 328.4 0 507.8-271.9 507.8-507.8 0-7.8-0.2-15.5-0.5-23.1 35.1-25.2 65.4-56.6 89.3-92.4" fill="#0095f4" p-id="7228"></path></svg>